M48
;Layer_Color=9474304
;FILE_FORMAT=2:4
INCH,TZ
;TYPE=PLATED
T1F00S00C0.0118
T2F00S00C0.0280
T3F00S00C0.0315
T4F00S00C0.0354
T5F00S00C0.0390
T6F00S00C0.0394
T7F00S00C0.0400
%
T01
X9700Y18100
X8750Y5300
X8050Y5450
X23850Y23250
X22700Y25150
T02
X15250Y18150
X15050Y24450
T03
X15685Y23550
X20015
X20533Y27506
X21320Y27464
X22106Y27423
X22892Y27382
X23678Y27341
X24465Y27299
X25251Y27258
X26037Y27217
X26824Y27176
X27610Y27135
X27277Y35825
X26491Y35867
X25704Y35908
X28063Y35784
X24918Y35949
X24132Y35990
X23345Y36031
X22559Y36073
X21773Y36114
X20987Y36155
T04
X9028Y3422
X9921Y2598
X10628Y1891
X11216Y15434
X10520Y16130
X11912Y14738
X12608Y14042
X13304Y13346
X14000Y12650
X15550Y11350
X16257Y10643
X16100Y13600
Y14600
X16100Y15600
X16100Y16600
Y17600
Y18600
Y19600
X6400Y17450
X7107Y16743
X5857Y14807
X5150Y14100
X4443Y13393
X4079Y8371
X4786Y7664
X5493Y6957
X6200Y6250
X6907Y5543
X7614Y4836
X8321Y4129
X7050Y22900
X6050Y22900
X5050Y22900
X4050Y22900
X3050Y22900
X2050Y22900
X16100Y20600
X32521Y26955
Y27955
Y28955
Y29955
Y30955
Y31955
Y32955
Y33955
X33921
Y32955
Y31955
Y30955
Y29955
Y28955
Y27955
Y26955
T05
X23920Y24164
X23920Y25936
X26480Y25936
Y24164
T06
X15998Y1906
X16694Y2602
X18200Y4150
X18896Y4846
X9166Y19800
X7800Y27900
X6816
X10600Y27450
X11584
X12558Y19793
X13542Y19793
X10150Y19800
T07
X11769Y3654
X12476Y2947
X13537Y2594
X14244Y3301
X14951Y4008
X15658Y4715
X16365Y5422
X17073Y6129
X16719Y7190
X16012Y7897
X15305Y8604
X14598Y9311
X13891Y10018
X13183Y10725
X12476Y11433
X11769Y12140
X11062Y12847
X10355Y13554
X9648Y14261
X10143Y6907
X10850Y6200
X10355Y5069
X9648Y5776
X11062Y4362
X8941Y6483
X8234Y7190
X7527Y7897
X6819Y8604
X6112Y9311
X5405Y10018
X4698Y10726
X7244Y9806
X7951Y9099
X8941Y14968
M30
