G04*
G04 #@! TF.GenerationSoftware,Altium Limited,Altium Designer,22.5.1 (42)*
G04*
G04 Layer_Color=32896*
%FSLAX25Y25*%
%MOIN*%
G70*
G04*
G04 #@! TF.SameCoordinates,1E371425-67B3-4B82-B5F9-9DAA90CAEBC7*
G04*
G04*
G04 #@! TF.FilePolarity,Positive*
G04*
G01*
G75*
%ADD10C,0.00984*%
%ADD11C,0.00500*%
%ADD12C,0.00787*%
%ADD13C,0.01000*%
%ADD16C,0.00394*%
D10*
X233811Y241740D02*
X233073Y242166D01*
Y241314D01*
X233811Y241740D01*
X113768Y197933D02*
X113030Y198359D01*
Y197507D01*
X113768Y197933D01*
X79847Y198000D02*
X79108Y198426D01*
Y197574D01*
X79847Y198000D01*
X94189Y274500D02*
X93451Y274926D01*
Y274074D01*
X94189Y274500D01*
X90795Y279000D02*
X90057Y279426D01*
Y278574D01*
X90795Y279000D01*
X151774Y10359D02*
X151036Y10785D01*
Y9933D01*
X151774Y10359D01*
X149122Y117870D02*
X148384Y118296D01*
Y117444D01*
X149122Y117870D01*
D11*
X191886Y235500D02*
X196531Y235500D01*
X160468Y235500D02*
X165114Y235500D01*
X165114Y230382D02*
X191886Y230382D01*
X191886Y235500D02*
X191886Y230382D01*
X191886Y240618D02*
X191886Y235500D01*
X165114Y240618D02*
X191886Y240618D01*
X165114Y240618D02*
X165114Y235500D01*
X165114Y230382D01*
D12*
X243713Y238118D02*
X260287D01*
X264382Y246150D02*
Y254850D01*
X243713Y262882D02*
X260287Y262882D01*
X239618Y246150D02*
Y254850D01*
X115933Y188681D02*
Y211319D01*
X145067D01*
Y188681D02*
Y211319D01*
X115933Y188681D02*
X145067D01*
X82012Y188748D02*
Y211386D01*
X111146D01*
Y188748D02*
Y211386D01*
X82012Y188748D02*
X111146D01*
X96354Y265248D02*
Y287886D01*
X125488D01*
Y265248D02*
Y287886D01*
X96354Y265248D02*
X125488D01*
X87646Y265614D02*
Y288252D01*
X58512Y265614D02*
X87646D01*
X58512D02*
Y288252D01*
X87646D01*
X143696Y21703D02*
X159703Y5696D01*
X143696Y21703D02*
X164297Y42304D01*
X180304Y26297D01*
X159703Y5696D02*
X180304Y26297D01*
X140835Y113415D02*
X151414Y123995D01*
X92117Y162134D02*
X140835Y113415D01*
X92117Y162134D02*
X102696Y172713D01*
X151414Y123995D01*
X156000Y211000D02*
X166000D01*
X156000Y131000D02*
Y211000D01*
Y131000D02*
X166000D01*
Y211000D01*
X108713Y260787D02*
X107925D01*
X108319D01*
Y263149D01*
X108713Y262755D01*
X105171Y260787D02*
X106745D01*
X105171Y262362D01*
Y262755D01*
X105564Y263149D01*
X106351D01*
X106745Y262755D01*
X104383Y263149D02*
Y261575D01*
X103596Y260787D01*
X102809Y261575D01*
Y263149D01*
X81213Y260787D02*
X80426D01*
X80819D01*
Y263149D01*
X81213Y262755D01*
X77671Y260787D02*
X79245D01*
X77671Y262362D01*
Y262755D01*
X78064Y263149D01*
X78851D01*
X79245Y262755D01*
X76883Y263149D02*
Y261575D01*
X76096Y260787D01*
X75309Y261575D01*
Y263149D01*
X128032Y184287D02*
Y186649D01*
X129213Y185468D01*
X127638D01*
X126851Y185862D02*
X126064Y184287D01*
X125277Y185862D01*
X122915Y184287D02*
X124490D01*
X122915Y185862D01*
Y186255D01*
X123309Y186649D01*
X124096D01*
X124490Y186255D01*
X93532Y184287D02*
Y186649D01*
X94713Y185468D01*
X93138D01*
X92351Y185862D02*
X91564Y184287D01*
X90777Y185862D01*
X88415Y184287D02*
X89990D01*
X88415Y185862D01*
Y186255D01*
X88809Y186649D01*
X89596D01*
X89990Y186255D01*
X168968Y137213D02*
Y134851D01*
X167787Y136032D01*
X169362D01*
X170149Y134851D02*
Y136425D01*
X170936Y137213D01*
X171723Y136425D01*
Y134851D01*
X174085Y137213D02*
X172510D01*
X174085Y135638D01*
Y135245D01*
X173691Y134851D01*
X172904D01*
X172510Y135245D01*
X169862Y145745D02*
X169468Y145351D01*
X168681D01*
X168287Y145745D01*
Y147319D01*
X168681Y147713D01*
X169468D01*
X169862Y147319D01*
Y146532D01*
X169074D01*
X170649Y147713D02*
Y145351D01*
X172223Y147713D01*
Y145351D01*
X173010D02*
Y147713D01*
X174191D01*
X174585Y147319D01*
Y145745D01*
X174191Y145351D01*
X173010D01*
X169862Y155245D02*
X169468Y154851D01*
X168681D01*
X168287Y155245D01*
Y155638D01*
X168681Y156032D01*
X169468D01*
X169862Y156425D01*
Y156819D01*
X169468Y157213D01*
X168681D01*
X168287Y156819D01*
X172223Y155245D02*
X171830Y154851D01*
X171042D01*
X170649Y155245D01*
Y156819D01*
X171042Y157213D01*
X171830D01*
X172223Y156819D01*
X173010Y154851D02*
Y157213D01*
X174585D01*
X169362Y165245D02*
X168968Y164851D01*
X168181D01*
X167787Y165245D01*
Y165638D01*
X168181Y166032D01*
X168968D01*
X169362Y166426D01*
Y166819D01*
X168968Y167213D01*
X168181D01*
X167787Y166819D01*
X170149Y164851D02*
Y167213D01*
X171330D01*
X171723Y166819D01*
Y165245D01*
X171330Y164851D01*
X170149D01*
X172510Y167213D02*
Y165638D01*
X173297Y164851D01*
X174085Y165638D01*
Y167213D01*
Y166032D01*
X172510D01*
X167129Y5985D02*
X167871D01*
X168613Y6727D01*
X168613Y7469D01*
X167129Y8953D01*
X166387D01*
X165645Y8211D01*
X165645Y7469D01*
X166016Y7098D01*
X166758Y7098D01*
X167871Y8211D01*
X168242Y9324D02*
X170468Y8582D01*
X169726Y10808D01*
X153608Y140278D02*
X151938Y141948D01*
Y140835D01*
X150825Y140835D01*
X152495Y139165D01*
X152217Y138330D02*
X151103Y137217D01*
X148599Y138609D02*
X149155Y135826D01*
X147486Y137495D02*
X150269Y136939D01*
X148877Y134991D02*
X147764Y133877D01*
X146929Y133599D02*
X145259Y135269D01*
X144424Y134434D01*
X144424Y133877D01*
X144981Y133321D01*
X145537D01*
X146372Y134156D01*
X147108Y147278D02*
X145438Y148948D01*
Y147835D01*
X144325Y147835D01*
X145995Y146165D01*
X145717Y145330D02*
X144604Y144217D01*
X142099Y145608D02*
X142655Y142825D01*
X140986Y144495D02*
X143769Y143939D01*
X142377Y141991D02*
X141264Y140877D01*
X140429Y140599D02*
X138759Y142269D01*
X139316Y139486D01*
X137646Y141156D01*
X140608Y153778D02*
X138938Y155448D01*
Y154335D01*
X137825Y154335D01*
X139495Y152665D01*
X139217Y151830D02*
X138103Y150717D01*
X135599Y152109D02*
X135877Y151830D01*
Y150717D01*
X134764D01*
X134486Y150995D01*
X135877Y150717D02*
X136712Y149882D01*
X135877Y148491D02*
X134764Y147377D01*
X133929Y147099D02*
X132259Y148769D01*
X131424Y147934D01*
X131424Y147377D01*
X131981Y146821D01*
X132537D01*
X133372Y147656D01*
X134108Y160278D02*
X132438Y161948D01*
Y160835D01*
X131325Y160835D01*
X132995Y159165D01*
X132717Y158330D02*
X131604Y157217D01*
X129099Y158608D02*
X129377Y158330D01*
Y157217D01*
X128264D01*
X127986Y157495D01*
X129377Y157217D02*
X130212Y156382D01*
X129377Y154991D02*
X128264Y153877D01*
X127429Y153599D02*
X125759Y155269D01*
X126316Y152486D01*
X124646Y154156D01*
X126608Y167278D02*
X124938Y168948D01*
Y167835D01*
X123825Y167835D01*
X125495Y166165D01*
X125217Y165330D02*
X124103Y164217D01*
X121599Y165609D02*
X120486Y164495D01*
X120764Y164217D01*
X122990D01*
X123269Y163939D01*
X122155Y162826D01*
X121877Y161991D02*
X120764Y160877D01*
X119929Y160599D02*
X118259Y162269D01*
X117424Y161434D01*
X117424Y160877D01*
X117981Y160321D01*
X118537D01*
X119372Y161156D01*
X120108Y174278D02*
X118438Y175948D01*
Y174835D01*
X117325Y174835D01*
X118995Y173165D01*
X118717Y172330D02*
X117604Y171217D01*
X115099Y172608D02*
X113986Y171495D01*
X114264Y171217D01*
X116490D01*
X116769Y170939D01*
X115655Y169825D01*
X115377Y168991D02*
X114264Y167877D01*
X113429Y167599D02*
X111759Y169269D01*
X112316Y166486D01*
X110646Y168156D01*
D13*
X168500Y133000D02*
X169500Y132000D01*
X167500D02*
X168500Y133000D01*
Y131000D02*
Y133000D01*
X140414Y72672D02*
X139000Y71259D01*
X139707Y71966D01*
X136172Y75500D01*
X134759D01*
X134052Y74793D01*
Y73379D01*
X141121Y74793D02*
X142534D01*
X143948Y76207D01*
Y77621D01*
X143241Y78328D01*
X141827D01*
X141121Y77621D01*
X141827Y78328D01*
Y79741D01*
X141121Y80448D01*
X139707D01*
X138293Y79034D01*
Y77621D01*
D16*
X246424Y219951D02*
X245899Y219426D01*
X244850D01*
X244325Y219951D01*
Y222049D01*
X244850Y222574D01*
X245899D01*
X246424Y222049D01*
X247474Y219951D02*
X247998Y219426D01*
X249048D01*
X249573Y219951D01*
Y220475D01*
X249048Y221000D01*
X248523D01*
X249048D01*
X249573Y221525D01*
Y222049D01*
X249048Y222574D01*
X247998D01*
X247474Y222049D01*
X253574Y235549D02*
X254099Y236074D01*
X255149D01*
X255673Y235549D01*
Y235025D01*
X255149Y234500D01*
X254099D01*
X253574Y233975D01*
Y233451D01*
X254099Y232926D01*
X255149D01*
X255673Y233451D01*
X252525Y236074D02*
Y232926D01*
X251475Y233975D01*
X250426Y232926D01*
Y236074D01*
X249376Y232926D02*
X248327D01*
X248851D01*
Y236074D01*
X249376Y235549D01*
X182124Y224926D02*
Y228074D01*
X180550D01*
X180025Y227550D01*
Y226500D01*
X180550Y225975D01*
X182124D01*
X181074D02*
X180025Y224926D01*
X176876D02*
X178975D01*
X176876Y227025D01*
Y227550D01*
X177401Y228074D01*
X178451D01*
X178975Y227550D01*
X158876Y129074D02*
Y125926D01*
X160450D01*
X160975Y126451D01*
Y127500D01*
X160450Y128025D01*
X158876D01*
X164124Y125926D02*
X163074Y126451D01*
X162025Y127500D01*
Y128550D01*
X162549Y129074D01*
X163599D01*
X164124Y128550D01*
Y128025D01*
X163599Y127500D01*
X162025D01*
X93387Y170613D02*
X94129Y171355D01*
X93758Y170984D01*
X95613Y169129D01*
X96355D01*
X96726Y169500D01*
Y170242D01*
X94871Y167645D02*
X94129Y166903D01*
X94500Y167274D01*
X92274Y169500D01*
X93016Y169500D01*
X106525Y187074D02*
X107574D01*
X107050D01*
Y184450D01*
X107574Y183926D01*
X108099D01*
X108624Y184450D01*
X105475Y187074D02*
X103376D01*
Y186549D01*
X105475Y184450D01*
Y183926D01*
X138025Y187074D02*
X139074D01*
X138549D01*
Y184450D01*
X139074Y183926D01*
X139599D01*
X140124Y184450D01*
X134876Y187074D02*
X135926Y186549D01*
X136975Y185500D01*
Y184450D01*
X136451Y183926D01*
X135401D01*
X134876Y184450D01*
Y184975D01*
X135401Y185500D01*
X136975D01*
X87025Y263574D02*
X88074D01*
X87550D01*
Y260950D01*
X88074Y260426D01*
X88599D01*
X89124Y260950D01*
X83876Y263574D02*
X85975D01*
Y262000D01*
X84926Y262525D01*
X84401D01*
X83876Y262000D01*
Y260950D01*
X84401Y260426D01*
X85451D01*
X85975Y260950D01*
X124525Y263574D02*
X125574D01*
X125049D01*
Y260950D01*
X125574Y260426D01*
X126099D01*
X126624Y260950D01*
X121901Y260426D02*
Y263574D01*
X123475Y262000D01*
X121376D01*
M02*
