G04*
G04 #@! TF.GenerationSoftware,Altium Limited,Altium Designer,22.5.1 (42)*
G04*
G04 Layer_Color=32768*
%FSLAX25Y25*%
%MOIN*%
G70*
G04*
G04 #@! TF.SameCoordinates,1E371425-67B3-4B82-B5F9-9DAA90CAEBC7*
G04*
G04*
G04 #@! TF.FilePolarity,Positive*
G04*
G01*
G75*
%ADD12C,0.00787*%
%ADD60C,0.00197*%
D12*
X181722Y27581D02*
X202879Y48738D01*
X165157Y44145D02*
X181722Y27581D01*
X165157Y44145D02*
X186315Y65302D01*
X202879Y48738D01*
D60*
X89408Y158144D02*
X182724Y64829D01*
X38519Y107255D02*
X89408Y158144D01*
X38519Y107255D02*
X131835Y13939D01*
X182724Y64829D01*
X305279Y263903D02*
X310431Y362194D01*
X205260Y367706D02*
X310431Y362194D01*
X177125Y338626D02*
X205260Y367706D01*
X175167Y301276D02*
X177125Y338626D01*
X175167Y301276D02*
X200108Y269415D01*
X305279Y263903D01*
X142154Y256106D02*
Y261894D01*
X153847Y256106D02*
Y261894D01*
X142154Y256106D02*
X153847D01*
X142154Y261894D02*
X153847D01*
X142102Y254894D02*
X153795D01*
X142102Y249106D02*
X153795D01*
Y254894D01*
X142102Y249106D02*
Y254894D01*
X139996Y249563D02*
Y261437D01*
X134004Y249563D02*
Y261437D01*
Y249563D02*
X139996D01*
X134004Y261437D02*
X139996D01*
M02*
