G04*
G04 #@! TF.GenerationSoftware,Altium Limited,Altium Designer,22.5.1 (42)*
G04*
G04 Layer_Color=16711935*
%FSLAX25Y25*%
%MOIN*%
G70*
G04*
G04 #@! TF.SameCoordinates,1E371425-67B3-4B82-B5F9-9DAA90CAEBC7*
G04*
G04*
G04 #@! TF.FilePolarity,Positive*
G04*
G01*
G75*
%ADD12C,0.00787*%
%ADD60C,0.00197*%
D12*
X235780Y237724D02*
X268220D01*
Y263276D01*
X235780Y263276D02*
X268220Y263276D01*
X235780Y237724D02*
X235780Y263276D01*
X115539Y188287D02*
Y211713D01*
X145461Y211713D01*
Y188287D02*
Y211713D01*
X115539Y188287D02*
X145461D01*
X81618Y188354D02*
Y211779D01*
X111539D01*
Y188354D02*
Y211779D01*
X81618Y188354D02*
X111539D01*
X95961Y264854D02*
Y288280D01*
X125882D01*
X125882Y264854D02*
X125882Y288280D01*
X95961Y264854D02*
X125882Y264854D01*
X88039Y265220D02*
Y288646D01*
X58118Y265220D02*
X88039D01*
X58118D02*
Y288646D01*
X88039D01*
X143139Y21703D02*
X159703Y5139D01*
X143139Y21703D02*
X164297Y42861D01*
X180861Y26297D01*
X159703Y5139D02*
X180861Y26297D01*
X140835Y112859D02*
X151971Y123995D01*
X91561Y162134D02*
X140835Y112859D01*
X91561Y162134D02*
X102696Y173269D01*
X151971Y123995D01*
D60*
X241154Y229894D02*
X252847D01*
X241154Y224106D02*
X252847D01*
X241154D02*
Y229894D01*
X252847Y224106D02*
Y229894D01*
X153500Y232154D02*
X153500Y238846D01*
X164130Y238846D01*
X164130Y241602D02*
X164130Y238846D01*
X164130Y241602D02*
X192870Y241602D01*
X192870Y238846D01*
X203500D01*
X203500Y232154D02*
X203500Y238846D01*
X192870Y232154D02*
X203500Y232154D01*
X192870Y232154D02*
X192870Y229398D01*
X164130Y229398D02*
X192870Y229398D01*
X164130Y232154D02*
X164130Y229398D01*
X153500Y232154D02*
X164130D01*
M02*
