G04*
G04 #@! TF.GenerationSoftware,Altium Limited,Altium Designer,22.5.1 (42)*
G04*
G04 Layer_Color=255*
%FSLAX25Y25*%
%MOIN*%
G70*
G04*
G04 #@! TF.SameCoordinates,1E371425-67B3-4B82-B5F9-9DAA90CAEBC7*
G04*
G04*
G04 #@! TF.FilePolarity,Positive*
G04*
G01*
G75*
%ADD31R,0.06063X0.06063*%
%ADD32C,0.06063*%
%ADD33C,0.06102*%
%ADD34R,0.06102X0.06102*%
%ADD38P,0.08630X4X90.0*%
%ADD39C,0.05512*%
%ADD40P,0.07795X4X180.0*%
%ADD43R,0.03622X0.03819*%
%ADD50C,0.07400*%
%ADD51P,0.08352X4X360.0*%
%ADD52C,0.05906*%
%ADD53P,0.07795X4X132.0*%
%ADD54P,0.08352X4X270.0*%
%ADD55R,0.05906X0.05906*%
%ADD56R,0.05906X0.05906*%
%ADD57C,0.04724*%
D31*
X239205Y241642D02*
D03*
D32*
X264795D02*
D03*
X239205Y259358D02*
D03*
X264795Y259358D02*
D03*
D33*
X135421Y197933D02*
D03*
X101500Y198000D02*
D03*
X115842Y274500D02*
D03*
X68158Y279000D02*
D03*
X166941Y26018D02*
D03*
X182000Y41500D02*
D03*
D34*
X125579Y197933D02*
D03*
X91658Y198000D02*
D03*
X106000Y274500D02*
D03*
X78000Y279000D02*
D03*
D38*
X159982Y19059D02*
D03*
X188960Y48460D02*
D03*
D39*
X209865Y361551D02*
D03*
X217729Y361138D02*
D03*
X225592Y360726D02*
D03*
X233455Y360314D02*
D03*
X241318Y359902D02*
D03*
X249181Y359490D02*
D03*
X257045Y359078D02*
D03*
X264908Y358666D02*
D03*
X272771Y358254D02*
D03*
X280634Y357842D02*
D03*
X276101Y271347D02*
D03*
X268238Y271759D02*
D03*
X260375Y272170D02*
D03*
X252512Y272583D02*
D03*
X244649Y272995D02*
D03*
X236785Y273407D02*
D03*
X228922Y273819D02*
D03*
X221059Y274231D02*
D03*
X213196Y274643D02*
D03*
X105201Y161298D02*
D03*
X112161Y154339D02*
D03*
X119121Y147379D02*
D03*
X126081Y140419D02*
D03*
X133040Y133460D02*
D03*
D40*
X140000Y126500D02*
D03*
D43*
X243949Y227000D02*
D03*
X250051D02*
D03*
D50*
X135370Y25938D02*
D03*
X142441Y33009D02*
D03*
X149512Y40080D02*
D03*
X156583Y47151D02*
D03*
X163654Y54222D02*
D03*
X170726Y61293D02*
D03*
X101429Y69071D02*
D03*
X108500Y62000D02*
D03*
X79509Y90991D02*
D03*
X72438Y98063D02*
D03*
X124764Y29473D02*
D03*
X117692Y36544D02*
D03*
X110621Y43615D02*
D03*
X103551Y50687D02*
D03*
X96479Y57757D02*
D03*
X89408Y64828D02*
D03*
X82337Y71900D02*
D03*
X75266Y78971D02*
D03*
X68195Y86042D02*
D03*
X61124Y93113D02*
D03*
X54053Y100184D02*
D03*
X46982Y107255D02*
D03*
X89408Y149681D02*
D03*
X96479Y142610D02*
D03*
X103550Y135539D02*
D03*
X110622Y128468D02*
D03*
X117692Y121397D02*
D03*
X124764Y114326D02*
D03*
X131835Y107255D02*
D03*
X138906Y100184D02*
D03*
X145976Y93113D02*
D03*
X153048Y86042D02*
D03*
X160119Y78970D02*
D03*
X167190Y71900D02*
D03*
D51*
X99213Y25984D02*
D03*
X64000Y174500D02*
D03*
X40787Y83713D02*
D03*
X162571Y106429D02*
D03*
D52*
X106284Y18913D02*
D03*
X51500Y141000D02*
D03*
X44429Y133929D02*
D03*
X339213Y279551D02*
D03*
Y289551D02*
D03*
Y299551D02*
D03*
Y309551D02*
D03*
Y319551D02*
D03*
Y329551D02*
D03*
Y339551D02*
D03*
X60500Y229000D02*
D03*
X50500Y229000D02*
D03*
X40500Y229000D02*
D03*
X30500Y229000D02*
D03*
X20500Y229000D02*
D03*
X71071Y167429D02*
D03*
X325213Y329551D02*
D03*
Y319551D02*
D03*
Y309551D02*
D03*
Y299551D02*
D03*
Y289551D02*
D03*
Y279551D02*
D03*
Y269551D02*
D03*
X90284Y34216D02*
D03*
X83213Y41287D02*
D03*
X76143Y48358D02*
D03*
X69071Y55429D02*
D03*
X62000Y62500D02*
D03*
X54929Y69571D02*
D03*
X47858Y76642D02*
D03*
X155500Y113500D02*
D03*
X161000Y146000D02*
D03*
X161000Y156000D02*
D03*
X161000Y166000D02*
D03*
Y176000D02*
D03*
Y186000D02*
D03*
Y196000D02*
D03*
Y206000D02*
D03*
D53*
X205332Y275056D02*
D03*
D54*
X58571Y148071D02*
D03*
D55*
X339213Y269551D02*
D03*
X325213Y339551D02*
D03*
X161000Y136000D02*
D03*
D56*
X70500Y229000D02*
D03*
D57*
X200153Y235500D02*
D03*
X156846D02*
D03*
M02*
