G04*
G04 #@! TF.GenerationSoftware,Altium Limited,Altium Designer,22.5.1 (42)*
G04*
G04 Layer_Color=32896*
%FSLAX25Y25*%
%MOIN*%
G70*
G04*
G04 #@! TF.SameCoordinates,1E371425-67B3-4B82-B5F9-9DAA90CAEBC7*
G04*
G04*
G04 #@! TF.FilePolarity,Positive*
G04*
G01*
G75*
%ADD12C,0.00787*%
%ADD16C,0.00394*%
G36*
X258821Y247926D02*
X258621D01*
X258585Y247988D01*
X258545Y248047D01*
X258497Y248105D01*
X258454Y248156D01*
X258410Y248200D01*
X258377Y248236D01*
X258363Y248247D01*
X258352Y248258D01*
X258348Y248261D01*
X258345Y248265D01*
X258268Y248327D01*
X258192Y248385D01*
X258119Y248436D01*
X258046Y248476D01*
X257984Y248513D01*
X257959Y248527D01*
X257937Y248538D01*
X257919Y248549D01*
X257904Y248553D01*
X257897Y248560D01*
X257893D01*
Y248858D01*
X257948Y248836D01*
X258002Y248811D01*
X258057Y248786D01*
X258108Y248760D01*
X258152Y248738D01*
X258188Y248720D01*
X258210Y248706D01*
X258213Y248702D01*
X258217D01*
X258283Y248662D01*
X258341Y248622D01*
X258392Y248585D01*
X258432Y248553D01*
X258468Y248527D01*
X258490Y248505D01*
X258508Y248491D01*
X258512Y248487D01*
Y250456D01*
X258821D01*
Y247926D01*
D02*
G37*
G36*
X257471Y247937D02*
X257132D01*
X256739Y249557D01*
X256710Y249670D01*
X256688Y249772D01*
X256666Y249867D01*
X256648Y249947D01*
X256637Y249983D01*
X256634Y250016D01*
X256626Y250041D01*
X256623Y250063D01*
X256615Y250081D01*
Y250096D01*
X256612Y250103D01*
Y250107D01*
X256586Y249947D01*
X256554Y249790D01*
X256521Y249641D01*
X256506Y249572D01*
X256488Y249503D01*
X256473Y249441D01*
X256459Y249386D01*
X256444Y249339D01*
X256433Y249295D01*
X256426Y249262D01*
X256419Y249237D01*
X256412Y249219D01*
Y249215D01*
X256055Y247937D01*
X255651D01*
X255174Y249641D01*
X255170Y249656D01*
X255163Y249677D01*
X255156Y249707D01*
X255149Y249739D01*
X255138Y249776D01*
X255130Y249816D01*
X255108Y249896D01*
X255090Y249976D01*
X255079Y250012D01*
X255072Y250041D01*
X255068Y250071D01*
X255061Y250089D01*
X255058Y250103D01*
Y250107D01*
X255039Y250012D01*
X255021Y249918D01*
X255003Y249830D01*
X254985Y249754D01*
X254977Y249717D01*
X254970Y249685D01*
X254963Y249659D01*
X254959Y249634D01*
X254956Y249616D01*
X254952Y249601D01*
X254948Y249594D01*
Y249590D01*
X254573Y247937D01*
X254228D01*
X254887Y250456D01*
X255236D01*
X255767Y248538D01*
X255782Y248491D01*
X255793Y248440D01*
X255807Y248389D01*
X255818Y248345D01*
X255829Y248305D01*
X255837Y248272D01*
X255840Y248251D01*
X255844Y248247D01*
Y248243D01*
X255847Y248254D01*
X255851Y248272D01*
X255862Y248312D01*
X255876Y248360D01*
X255891Y248411D01*
X255902Y248458D01*
X255913Y248498D01*
X255917Y248516D01*
X255920Y248527D01*
X255924Y248534D01*
Y248538D01*
X256452Y250456D01*
X256779D01*
X257471Y247937D01*
D02*
G37*
G36*
X253168Y250496D02*
X253259Y250485D01*
X253343Y250467D01*
X253412Y250449D01*
X253470Y250434D01*
X253496Y250424D01*
X253518Y250416D01*
X253532Y250409D01*
X253543Y250405D01*
X253551Y250402D01*
X253554D01*
X253631Y250362D01*
X253696Y250318D01*
X253754Y250271D01*
X253802Y250227D01*
X253838Y250191D01*
X253864Y250158D01*
X253882Y250136D01*
X253885Y250132D01*
Y250129D01*
X253925Y250060D01*
X253955Y249994D01*
X253973Y249932D01*
X253987Y249874D01*
X253995Y249823D01*
X254002Y249783D01*
Y249768D01*
Y249758D01*
Y249754D01*
Y249750D01*
X253998Y249677D01*
X253987Y249608D01*
X253969Y249546D01*
X253951Y249495D01*
X253929Y249452D01*
X253915Y249419D01*
X253900Y249401D01*
X253896Y249394D01*
X253853Y249339D01*
X253802Y249288D01*
X253747Y249244D01*
X253693Y249204D01*
X253645Y249175D01*
X253605Y249153D01*
X253591Y249146D01*
X253580Y249139D01*
X253572Y249135D01*
X253569D01*
X253540Y249120D01*
X253503Y249110D01*
X253463Y249095D01*
X253419Y249080D01*
X253328Y249055D01*
X253234Y249029D01*
X253190Y249019D01*
X253150Y249008D01*
X253110Y248997D01*
X253077Y248989D01*
X253052Y248982D01*
X253030Y248978D01*
X253015Y248975D01*
X253012D01*
X252939Y248957D01*
X252873Y248942D01*
X252815Y248924D01*
X252764Y248909D01*
X252717Y248891D01*
X252677Y248877D01*
X252641Y248862D01*
X252608Y248851D01*
X252582Y248836D01*
X252560Y248826D01*
X252546Y248818D01*
X252531Y248807D01*
X252513Y248797D01*
X252509Y248793D01*
X252477Y248757D01*
X252455Y248720D01*
X252437Y248684D01*
X252426Y248647D01*
X252418Y248618D01*
X252415Y248593D01*
Y248578D01*
Y248571D01*
X252422Y248513D01*
X252437Y248462D01*
X252459Y248418D01*
X252484Y248378D01*
X252506Y248349D01*
X252528Y248323D01*
X252542Y248309D01*
X252550Y248305D01*
X252579Y248287D01*
X252608Y248269D01*
X252677Y248240D01*
X252750Y248221D01*
X252823Y248207D01*
X252888Y248200D01*
X252917Y248196D01*
X252939Y248192D01*
X252990D01*
X253092Y248196D01*
X253183Y248211D01*
X253256Y248232D01*
X253318Y248254D01*
X253365Y248276D01*
X253401Y248298D01*
X253419Y248312D01*
X253427Y248316D01*
X253478Y248367D01*
X253518Y248422D01*
X253551Y248480D01*
X253572Y248538D01*
X253587Y248593D01*
X253598Y248633D01*
X253602Y248651D01*
X253605Y248662D01*
Y248669D01*
Y248673D01*
X253925Y248647D01*
X253918Y248567D01*
X253900Y248494D01*
X253882Y248425D01*
X253856Y248367D01*
X253835Y248320D01*
X253816Y248283D01*
X253809Y248272D01*
X253802Y248261D01*
X253798Y248258D01*
Y248254D01*
X253751Y248192D01*
X253700Y248138D01*
X253645Y248090D01*
X253591Y248054D01*
X253543Y248021D01*
X253507Y248003D01*
X253492Y247996D01*
X253481Y247988D01*
X253474Y247985D01*
X253470D01*
X253390Y247956D01*
X253303Y247934D01*
X253223Y247916D01*
X253147Y247905D01*
X253077Y247897D01*
X253052D01*
X253026Y247894D01*
X252979D01*
X252885Y247897D01*
X252801Y247908D01*
X252721Y247923D01*
X252652Y247937D01*
X252597Y247952D01*
X252571Y247959D01*
X252553Y247967D01*
X252539Y247974D01*
X252528Y247977D01*
X252520Y247981D01*
X252517D01*
X252444Y248018D01*
X252379Y248058D01*
X252324Y248101D01*
X252280Y248141D01*
X252247Y248178D01*
X252222Y248207D01*
X252204Y248229D01*
X252200Y248232D01*
Y248236D01*
X252164Y248298D01*
X252138Y248360D01*
X252120Y248422D01*
X252109Y248476D01*
X252102Y248523D01*
X252095Y248560D01*
Y248574D01*
Y248585D01*
Y248589D01*
Y248593D01*
X252098Y248655D01*
X252109Y248713D01*
X252124Y248767D01*
X252138Y248815D01*
X252153Y248851D01*
X252167Y248880D01*
X252178Y248898D01*
X252182Y248906D01*
X252218Y248957D01*
X252262Y249004D01*
X252306Y249044D01*
X252349Y249077D01*
X252386Y249106D01*
X252418Y249124D01*
X252440Y249139D01*
X252444Y249142D01*
X252448D01*
X252477Y249157D01*
X252509Y249171D01*
X252582Y249197D01*
X252666Y249222D01*
X252746Y249248D01*
X252819Y249270D01*
X252852Y249277D01*
X252881Y249284D01*
X252903Y249292D01*
X252921Y249295D01*
X252932Y249299D01*
X252935D01*
X252997Y249313D01*
X253056Y249328D01*
X253106Y249342D01*
X253150Y249353D01*
X253194Y249364D01*
X253230Y249375D01*
X253263Y249382D01*
X253289Y249394D01*
X253314Y249401D01*
X253332Y249404D01*
X253361Y249415D01*
X253380Y249419D01*
X253383Y249423D01*
X253438Y249444D01*
X253485Y249470D01*
X253525Y249495D01*
X253554Y249517D01*
X253580Y249539D01*
X253594Y249554D01*
X253605Y249565D01*
X253609Y249568D01*
X253634Y249601D01*
X253653Y249637D01*
X253663Y249674D01*
X253674Y249703D01*
X253678Y249732D01*
X253682Y249754D01*
Y249772D01*
Y249776D01*
X253678Y249819D01*
X253671Y249859D01*
X253660Y249896D01*
X253645Y249925D01*
X253631Y249954D01*
X253620Y249972D01*
X253612Y249987D01*
X253609Y249990D01*
X253580Y250027D01*
X253543Y250056D01*
X253507Y250081D01*
X253474Y250107D01*
X253441Y250121D01*
X253416Y250136D01*
X253398Y250143D01*
X253390Y250147D01*
X253336Y250165D01*
X253278Y250180D01*
X253219Y250187D01*
X253168Y250194D01*
X253125Y250198D01*
X253088Y250202D01*
X253056D01*
X252976Y250198D01*
X252903Y250191D01*
X252837Y250180D01*
X252779Y250165D01*
X252732Y250151D01*
X252695Y250140D01*
X252684Y250136D01*
X252673Y250132D01*
X252670Y250129D01*
X252666D01*
X252608Y250100D01*
X252553Y250067D01*
X252513Y250034D01*
X252477Y250001D01*
X252448Y249976D01*
X252429Y249950D01*
X252418Y249936D01*
X252415Y249932D01*
X252389Y249885D01*
X252364Y249834D01*
X252349Y249779D01*
X252335Y249732D01*
X252324Y249685D01*
X252317Y249652D01*
Y249637D01*
X252313Y249626D01*
Y249623D01*
Y249619D01*
X252000Y249648D01*
X252007Y249739D01*
X252022Y249827D01*
X252044Y249903D01*
X252069Y249972D01*
X252095Y250027D01*
X252105Y250049D01*
X252113Y250067D01*
X252124Y250081D01*
X252127Y250092D01*
X252135Y250100D01*
Y250103D01*
X252189Y250172D01*
X252247Y250234D01*
X252309Y250285D01*
X252368Y250329D01*
X252418Y250362D01*
X252462Y250384D01*
X252477Y250391D01*
X252488Y250398D01*
X252495Y250402D01*
X252499D01*
X252590Y250434D01*
X252684Y250460D01*
X252779Y250475D01*
X252870Y250489D01*
X252914Y250493D01*
X252950Y250496D01*
X252983D01*
X253012Y250500D01*
X253070D01*
X253168Y250496D01*
D02*
G37*
G36*
X133248Y199996D02*
X133325Y199982D01*
X133394Y199967D01*
X133456Y199945D01*
X133503Y199927D01*
X133539Y199909D01*
X133554Y199905D01*
X133565Y199898D01*
X133569Y199894D01*
X133572D01*
X133634Y199851D01*
X133692Y199800D01*
X133739Y199749D01*
X133780Y199698D01*
X133812Y199651D01*
X133834Y199614D01*
X133842Y199600D01*
X133849Y199589D01*
X133852Y199585D01*
Y199581D01*
X133889Y199505D01*
X133914Y199425D01*
X133932Y199352D01*
X133943Y199283D01*
X133954Y199225D01*
Y199203D01*
X133958Y199181D01*
Y199163D01*
Y199152D01*
Y199145D01*
Y199141D01*
X133954Y199075D01*
X133947Y199014D01*
X133936Y198952D01*
X133925Y198897D01*
X133907Y198846D01*
X133889Y198795D01*
X133871Y198751D01*
X133849Y198712D01*
X133827Y198675D01*
X133809Y198642D01*
X133791Y198617D01*
X133772Y198591D01*
X133761Y198573D01*
X133750Y198562D01*
X133743Y198555D01*
X133739Y198551D01*
X133700Y198511D01*
X133656Y198475D01*
X133608Y198446D01*
X133565Y198420D01*
X133521Y198395D01*
X133477Y198377D01*
X133394Y198351D01*
X133357Y198340D01*
X133321Y198333D01*
X133292Y198329D01*
X133263Y198326D01*
X133241Y198322D01*
X133212D01*
X133146Y198326D01*
X133084Y198337D01*
X133026Y198347D01*
X132975Y198362D01*
X132931Y198380D01*
X132899Y198391D01*
X132877Y198402D01*
X132873Y198406D01*
X132870D01*
X132811Y198442D01*
X132760Y198482D01*
X132713Y198522D01*
X132677Y198566D01*
X132644Y198602D01*
X132618Y198631D01*
X132604Y198653D01*
X132600Y198657D01*
Y198591D01*
X132604Y198526D01*
X132607Y198468D01*
X132615Y198409D01*
X132618Y198358D01*
X132626Y198311D01*
X132633Y198267D01*
X132644Y198227D01*
X132651Y198191D01*
X132658Y198162D01*
X132666Y198136D01*
X132669Y198115D01*
X132677Y198100D01*
X132680Y198089D01*
X132684Y198082D01*
Y198078D01*
X132720Y198005D01*
X132757Y197940D01*
X132797Y197889D01*
X132833Y197845D01*
X132866Y197809D01*
X132891Y197783D01*
X132910Y197769D01*
X132917Y197765D01*
X132961Y197736D01*
X133004Y197718D01*
X133048Y197703D01*
X133092Y197692D01*
X133124Y197685D01*
X133153Y197681D01*
X133179D01*
X133245Y197689D01*
X133306Y197703D01*
X133357Y197725D01*
X133405Y197747D01*
X133441Y197772D01*
X133466Y197794D01*
X133481Y197809D01*
X133488Y197816D01*
X133514Y197849D01*
X133539Y197889D01*
X133561Y197933D01*
X133576Y197976D01*
X133590Y198016D01*
X133601Y198049D01*
X133605Y198071D01*
X133608Y198074D01*
Y198078D01*
X133918Y198053D01*
X133896Y197951D01*
X133863Y197860D01*
X133827Y197780D01*
X133787Y197714D01*
X133747Y197663D01*
X133732Y197641D01*
X133714Y197623D01*
X133703Y197612D01*
X133692Y197601D01*
X133689Y197598D01*
X133685Y197594D01*
X133649Y197565D01*
X133608Y197539D01*
X133528Y197496D01*
X133448Y197467D01*
X133372Y197448D01*
X133303Y197434D01*
X133274Y197430D01*
X133248D01*
X133226Y197426D01*
X133197D01*
X133124Y197430D01*
X133055Y197438D01*
X132990Y197452D01*
X132928Y197470D01*
X132873Y197496D01*
X132819Y197518D01*
X132771Y197547D01*
X132728Y197572D01*
X132691Y197598D01*
X132655Y197627D01*
X132626Y197649D01*
X132604Y197670D01*
X132586Y197692D01*
X132571Y197707D01*
X132564Y197714D01*
X132560Y197718D01*
X132513Y197783D01*
X132473Y197860D01*
X132436Y197940D01*
X132404Y198023D01*
X132378Y198111D01*
X132356Y198198D01*
X132338Y198289D01*
X132324Y198373D01*
X132313Y198457D01*
X132305Y198533D01*
X132298Y198602D01*
X132294Y198661D01*
Y198712D01*
X132291Y198748D01*
Y198762D01*
Y198773D01*
Y198777D01*
Y198781D01*
X132294Y198897D01*
X132302Y199006D01*
X132313Y199108D01*
X132331Y199203D01*
X132349Y199287D01*
X132367Y199363D01*
X132389Y199432D01*
X132415Y199494D01*
X132436Y199545D01*
X132458Y199592D01*
X132476Y199629D01*
X132498Y199662D01*
X132513Y199687D01*
X132524Y199701D01*
X132531Y199713D01*
X132535Y199716D01*
X132582Y199767D01*
X132633Y199811D01*
X132684Y199847D01*
X132735Y199880D01*
X132790Y199909D01*
X132841Y199931D01*
X132891Y199949D01*
X132942Y199964D01*
X132986Y199975D01*
X133030Y199986D01*
X133066Y199993D01*
X133099Y199996D01*
X133128D01*
X133146Y200000D01*
X133164D01*
X133248Y199996D01*
D02*
G37*
G36*
X131257D02*
X131330Y199986D01*
X131395Y199971D01*
X131454Y199953D01*
X131501Y199938D01*
X131534Y199924D01*
X131555Y199913D01*
X131563Y199909D01*
X131621Y199873D01*
X131672Y199829D01*
X131712Y199785D01*
X131748Y199745D01*
X131774Y199705D01*
X131792Y199676D01*
X131803Y199654D01*
X131807Y199651D01*
Y199647D01*
X131832Y199574D01*
X131854Y199498D01*
X131869Y199414D01*
X131876Y199334D01*
X131883Y199265D01*
Y199236D01*
X131887Y199206D01*
Y199185D01*
Y199170D01*
Y199159D01*
Y199155D01*
Y197438D01*
X131552D01*
Y199174D01*
Y199250D01*
X131545Y199316D01*
X131541Y199370D01*
X131534Y199414D01*
X131526Y199447D01*
X131523Y199472D01*
X131516Y199487D01*
Y199490D01*
X131501Y199527D01*
X131483Y199556D01*
X131461Y199581D01*
X131443Y199607D01*
X131421Y199621D01*
X131406Y199636D01*
X131395Y199643D01*
X131392Y199647D01*
X131355Y199665D01*
X131319Y199680D01*
X131282Y199687D01*
X131250Y199694D01*
X131217Y199698D01*
X131195Y199701D01*
X131173D01*
X131115Y199698D01*
X131061Y199683D01*
X131017Y199669D01*
X130977Y199647D01*
X130948Y199629D01*
X130926Y199610D01*
X130911Y199600D01*
X130908Y199596D01*
X130889Y199574D01*
X130875Y199549D01*
X130853Y199490D01*
X130831Y199425D01*
X130820Y199359D01*
X130809Y199297D01*
Y199272D01*
X130806Y199250D01*
X130802Y199228D01*
Y199214D01*
Y199206D01*
Y199203D01*
X130500Y199247D01*
Y199316D01*
X130504Y199378D01*
X130515Y199440D01*
X130522Y199494D01*
X130536Y199545D01*
X130551Y199589D01*
X130566Y199632D01*
X130580Y199669D01*
X130598Y199701D01*
X130613Y199731D01*
X130627Y199756D01*
X130642Y199774D01*
X130653Y199789D01*
X130660Y199803D01*
X130664Y199807D01*
X130667Y199811D01*
X130704Y199844D01*
X130740Y199873D01*
X130780Y199898D01*
X130824Y199920D01*
X130908Y199953D01*
X130988Y199975D01*
X131064Y199989D01*
X131093Y199993D01*
X131122Y199996D01*
X131144Y200000D01*
X131177D01*
X131257Y199996D01*
D02*
G37*
G36*
X99087Y199885D02*
X99105Y199758D01*
X99123Y199641D01*
X99134Y199586D01*
X99145Y199536D01*
X99152Y199492D01*
X99163Y199452D01*
X99170Y199415D01*
X99178Y199386D01*
X99185Y199364D01*
X99189Y199346D01*
X99192Y199335D01*
Y199332D01*
X99247Y199164D01*
X99305Y199008D01*
X99334Y198931D01*
X99363Y198858D01*
X99396Y198793D01*
X99425Y198728D01*
X99451Y198669D01*
X99476Y198618D01*
X99498Y198575D01*
X99516Y198535D01*
X99534Y198502D01*
X99545Y198480D01*
X99553Y198465D01*
X99556Y198462D01*
X99600Y198385D01*
X99644Y198309D01*
X99687Y198240D01*
X99731Y198174D01*
X99771Y198116D01*
X99811Y198058D01*
X99851Y198007D01*
X99884Y197963D01*
X99917Y197919D01*
X99946Y197883D01*
X99975Y197854D01*
X99997Y197828D01*
X100011Y197807D01*
X100026Y197792D01*
X100033Y197785D01*
X100037Y197781D01*
Y197537D01*
X98406D01*
Y197836D01*
X99640D01*
X99553Y197941D01*
X99469Y198054D01*
X99396Y198163D01*
X99327Y198269D01*
X99298Y198316D01*
X99272Y198360D01*
X99247Y198400D01*
X99229Y198433D01*
X99214Y198462D01*
X99203Y198480D01*
X99196Y198495D01*
X99192Y198498D01*
X99119Y198644D01*
X99054Y198789D01*
X98999Y198928D01*
X98978Y198989D01*
X98956Y199051D01*
X98934Y199106D01*
X98919Y199157D01*
X98905Y199201D01*
X98894Y199237D01*
X98883Y199270D01*
X98875Y199292D01*
X98872Y199306D01*
Y199310D01*
X98835Y199459D01*
X98821Y199532D01*
X98810Y199597D01*
X98799Y199659D01*
X98788Y199721D01*
X98781Y199772D01*
X98774Y199823D01*
X98770Y199867D01*
X98766Y199907D01*
X98763Y199943D01*
Y199972D01*
X98759Y199994D01*
Y200009D01*
Y200020D01*
Y200023D01*
X99076D01*
X99087Y199885D01*
D02*
G37*
G36*
X97336Y200063D02*
X97409Y200052D01*
X97474Y200038D01*
X97532Y200020D01*
X97580Y200005D01*
X97613Y199990D01*
X97634Y199980D01*
X97642Y199976D01*
X97700Y199940D01*
X97751Y199896D01*
X97791Y199852D01*
X97827Y199812D01*
X97853Y199772D01*
X97871Y199743D01*
X97882Y199721D01*
X97886Y199717D01*
Y199714D01*
X97911Y199641D01*
X97933Y199565D01*
X97947Y199481D01*
X97955Y199401D01*
X97962Y199332D01*
Y199303D01*
X97966Y199274D01*
Y199252D01*
Y199237D01*
Y199226D01*
Y199223D01*
Y197504D01*
X97631D01*
Y199241D01*
Y199317D01*
X97623Y199383D01*
X97620Y199437D01*
X97613Y199481D01*
X97605Y199514D01*
X97601Y199539D01*
X97594Y199554D01*
Y199557D01*
X97580Y199594D01*
X97562Y199623D01*
X97540Y199648D01*
X97522Y199674D01*
X97500Y199688D01*
X97485Y199703D01*
X97474Y199710D01*
X97470Y199714D01*
X97434Y199732D01*
X97398Y199747D01*
X97361Y199754D01*
X97329Y199761D01*
X97296Y199765D01*
X97274Y199768D01*
X97252D01*
X97194Y199765D01*
X97139Y199750D01*
X97096Y199736D01*
X97056Y199714D01*
X97026Y199696D01*
X97005Y199678D01*
X96990Y199667D01*
X96986Y199663D01*
X96968Y199641D01*
X96954Y199616D01*
X96932Y199557D01*
X96910Y199492D01*
X96899Y199426D01*
X96888Y199364D01*
Y199339D01*
X96885Y199317D01*
X96881Y199295D01*
Y199281D01*
Y199274D01*
Y199270D01*
X96579Y199313D01*
Y199383D01*
X96582Y199444D01*
X96593Y199506D01*
X96601Y199561D01*
X96615Y199612D01*
X96630Y199656D01*
X96644Y199699D01*
X96659Y199736D01*
X96677Y199768D01*
X96692Y199798D01*
X96706Y199823D01*
X96721Y199841D01*
X96732Y199856D01*
X96739Y199870D01*
X96742Y199874D01*
X96746Y199878D01*
X96782Y199910D01*
X96819Y199940D01*
X96859Y199965D01*
X96903Y199987D01*
X96986Y200020D01*
X97066Y200042D01*
X97143Y200056D01*
X97172Y200060D01*
X97201Y200063D01*
X97223Y200067D01*
X97256D01*
X97336Y200063D01*
D02*
G37*
G36*
X114026Y275919D02*
X114368D01*
Y275635D01*
X114026D01*
Y274004D01*
X113775D01*
X112621Y275635D01*
Y275919D01*
X113717D01*
Y276523D01*
X114026D01*
Y275919D01*
D02*
G37*
G36*
X111678Y276563D02*
X111751Y276552D01*
X111817Y276538D01*
X111875Y276520D01*
X111922Y276505D01*
X111955Y276490D01*
X111977Y276480D01*
X111984Y276476D01*
X112042Y276440D01*
X112093Y276396D01*
X112133Y276352D01*
X112170Y276312D01*
X112195Y276272D01*
X112213Y276243D01*
X112224Y276221D01*
X112228Y276218D01*
Y276214D01*
X112253Y276141D01*
X112275Y276065D01*
X112290Y275981D01*
X112297Y275901D01*
X112304Y275832D01*
Y275803D01*
X112308Y275774D01*
Y275752D01*
Y275737D01*
Y275726D01*
Y275723D01*
Y274004D01*
X111973D01*
Y275741D01*
Y275817D01*
X111966Y275883D01*
X111962Y275937D01*
X111955Y275981D01*
X111948Y276014D01*
X111944Y276039D01*
X111937Y276054D01*
Y276057D01*
X111922Y276094D01*
X111904Y276123D01*
X111882Y276148D01*
X111864Y276174D01*
X111842Y276188D01*
X111828Y276203D01*
X111817Y276210D01*
X111813Y276214D01*
X111777Y276232D01*
X111740Y276247D01*
X111704Y276254D01*
X111671Y276261D01*
X111638Y276265D01*
X111617Y276269D01*
X111595D01*
X111536Y276265D01*
X111482Y276250D01*
X111438Y276236D01*
X111398Y276214D01*
X111369Y276196D01*
X111347Y276178D01*
X111332Y276167D01*
X111329Y276163D01*
X111311Y276141D01*
X111296Y276116D01*
X111274Y276057D01*
X111252Y275992D01*
X111241Y275926D01*
X111231Y275865D01*
Y275839D01*
X111227Y275817D01*
X111223Y275795D01*
Y275781D01*
Y275774D01*
Y275770D01*
X110921Y275814D01*
Y275883D01*
X110925Y275944D01*
X110936Y276006D01*
X110943Y276061D01*
X110958Y276112D01*
X110972Y276156D01*
X110987Y276199D01*
X111001Y276236D01*
X111020Y276269D01*
X111034Y276298D01*
X111049Y276323D01*
X111063Y276341D01*
X111074Y276356D01*
X111081Y276370D01*
X111085Y276374D01*
X111089Y276378D01*
X111125Y276411D01*
X111161Y276440D01*
X111202Y276465D01*
X111245Y276487D01*
X111329Y276520D01*
X111409Y276541D01*
X111485Y276556D01*
X111514Y276560D01*
X111544Y276563D01*
X111565Y276567D01*
X111598D01*
X111678Y276563D01*
D02*
G37*
G36*
X71219Y278167D02*
X70928Y278127D01*
X70902Y278167D01*
X70869Y278200D01*
X70840Y278233D01*
X70811Y278258D01*
X70782Y278276D01*
X70760Y278294D01*
X70746Y278302D01*
X70742Y278305D01*
X70695Y278327D01*
X70647Y278345D01*
X70604Y278356D01*
X70560Y278367D01*
X70524Y278371D01*
X70494Y278375D01*
X70425D01*
X70382Y278367D01*
X70305Y278349D01*
X70240Y278324D01*
X70181Y278298D01*
X70138Y278269D01*
X70105Y278243D01*
X70087Y278225D01*
X70079Y278222D01*
Y278218D01*
X70029Y278156D01*
X69992Y278091D01*
X69967Y278021D01*
X69948Y277952D01*
X69937Y277894D01*
X69934Y277869D01*
Y277847D01*
X69930Y277829D01*
Y277814D01*
Y277807D01*
Y277803D01*
Y277752D01*
X69937Y277705D01*
X69956Y277614D01*
X69981Y277537D01*
X70007Y277475D01*
X70036Y277424D01*
X70061Y277384D01*
X70072Y277374D01*
X70079Y277362D01*
X70083Y277359D01*
X70087Y277355D01*
X70116Y277326D01*
X70145Y277301D01*
X70210Y277257D01*
X70272Y277228D01*
X70334Y277210D01*
X70385Y277195D01*
X70429Y277191D01*
X70443Y277188D01*
X70465D01*
X70534Y277191D01*
X70596Y277206D01*
X70651Y277224D01*
X70695Y277246D01*
X70735Y277268D01*
X70764Y277286D01*
X70778Y277301D01*
X70786Y277304D01*
X70829Y277355D01*
X70866Y277410D01*
X70895Y277472D01*
X70917Y277526D01*
X70931Y277581D01*
X70942Y277621D01*
X70946Y277639D01*
X70949Y277650D01*
Y277657D01*
Y277661D01*
X71273Y277636D01*
X71266Y277577D01*
X71255Y277523D01*
X71222Y277421D01*
X71182Y277333D01*
X71161Y277293D01*
X71139Y277261D01*
X71121Y277228D01*
X71099Y277199D01*
X71080Y277177D01*
X71062Y277159D01*
X71048Y277144D01*
X71040Y277130D01*
X71033Y277126D01*
X71030Y277122D01*
X70986Y277090D01*
X70942Y277060D01*
X70895Y277035D01*
X70847Y277013D01*
X70757Y276980D01*
X70666Y276958D01*
X70625Y276948D01*
X70585Y276944D01*
X70553Y276940D01*
X70524Y276937D01*
X70498Y276933D01*
X70465D01*
X70389Y276937D01*
X70316Y276948D01*
X70247Y276962D01*
X70185Y276980D01*
X70127Y277006D01*
X70072Y277031D01*
X70021Y277057D01*
X69977Y277086D01*
X69937Y277115D01*
X69901Y277140D01*
X69872Y277170D01*
X69846Y277191D01*
X69828Y277210D01*
X69814Y277224D01*
X69806Y277235D01*
X69803Y277239D01*
X69766Y277286D01*
X69737Y277337D01*
X69708Y277384D01*
X69686Y277435D01*
X69650Y277534D01*
X69628Y277628D01*
X69621Y277668D01*
X69613Y277708D01*
X69610Y277741D01*
X69606Y277770D01*
X69603Y277796D01*
Y277814D01*
Y277825D01*
Y277829D01*
X69606Y277894D01*
X69613Y277956D01*
X69624Y278018D01*
X69639Y278072D01*
X69657Y278123D01*
X69675Y278174D01*
X69697Y278218D01*
X69715Y278258D01*
X69737Y278294D01*
X69759Y278327D01*
X69777Y278353D01*
X69796Y278378D01*
X69810Y278396D01*
X69821Y278407D01*
X69828Y278415D01*
X69832Y278418D01*
X69876Y278458D01*
X69919Y278495D01*
X69967Y278524D01*
X70014Y278549D01*
X70061Y278575D01*
X70109Y278593D01*
X70196Y278618D01*
X70236Y278629D01*
X70272Y278637D01*
X70305Y278640D01*
X70334Y278644D01*
X70356Y278647D01*
X70436D01*
X70480Y278640D01*
X70567Y278622D01*
X70647Y278596D01*
X70720Y278567D01*
X70778Y278538D01*
X70804Y278524D01*
X70826Y278513D01*
X70844Y278502D01*
X70855Y278495D01*
X70862Y278491D01*
X70866Y278487D01*
X70731Y279168D01*
X69723D01*
Y279463D01*
X70975D01*
X71219Y278167D01*
D02*
G37*
G36*
X72027Y277759D02*
Y277683D01*
X72034Y277617D01*
X72038Y277563D01*
X72045Y277519D01*
X72052Y277486D01*
X72056Y277461D01*
X72063Y277446D01*
Y277443D01*
X72078Y277406D01*
X72096Y277377D01*
X72118Y277352D01*
X72136Y277326D01*
X72158Y277312D01*
X72172Y277297D01*
X72183Y277290D01*
X72187Y277286D01*
X72223Y277268D01*
X72260Y277253D01*
X72296Y277246D01*
X72329Y277239D01*
X72362Y277235D01*
X72384Y277232D01*
X72405D01*
X72464Y277235D01*
X72518Y277250D01*
X72562Y277264D01*
X72602Y277286D01*
X72631Y277304D01*
X72653Y277323D01*
X72667Y277333D01*
X72671Y277337D01*
X72689Y277359D01*
X72704Y277384D01*
X72726Y277443D01*
X72748Y277508D01*
X72759Y277574D01*
X72769Y277636D01*
Y277661D01*
X72773Y277683D01*
X72777Y277705D01*
Y277719D01*
Y277727D01*
Y277730D01*
X73079Y277687D01*
Y277617D01*
X73075Y277555D01*
X73064Y277494D01*
X73057Y277439D01*
X73042Y277388D01*
X73028Y277344D01*
X73013Y277301D01*
X72999Y277264D01*
X72980Y277232D01*
X72966Y277202D01*
X72951Y277177D01*
X72937Y277159D01*
X72926Y277144D01*
X72919Y277130D01*
X72915Y277126D01*
X72911Y277122D01*
X72875Y277090D01*
X72838Y277060D01*
X72799Y277035D01*
X72755Y277013D01*
X72671Y276980D01*
X72591Y276958D01*
X72515Y276944D01*
X72486Y276940D01*
X72456Y276937D01*
X72435Y276933D01*
X72402D01*
X72322Y276937D01*
X72249Y276948D01*
X72183Y276962D01*
X72125Y276980D01*
X72078Y276995D01*
X72045Y277010D01*
X72023Y277020D01*
X72016Y277024D01*
X71958Y277060D01*
X71907Y277104D01*
X71867Y277148D01*
X71830Y277188D01*
X71805Y277228D01*
X71787Y277257D01*
X71776Y277279D01*
X71772Y277283D01*
Y277286D01*
X71747Y277359D01*
X71725Y277435D01*
X71710Y277519D01*
X71703Y277599D01*
X71696Y277668D01*
Y277697D01*
X71692Y277727D01*
Y277748D01*
Y277763D01*
Y277774D01*
Y277778D01*
Y279496D01*
X72027D01*
Y277759D01*
D02*
G37*
G36*
X121627Y146843D02*
X121609Y146773D01*
X121596Y146704D01*
X121588Y146629D01*
X121583Y146562D01*
Y146501D01*
X121580Y146452D01*
X121583Y146434D01*
Y146418D01*
Y146413D01*
Y146408D01*
X121593Y146310D01*
X121606Y146215D01*
X121622Y146127D01*
X121645Y146047D01*
X121663Y145978D01*
X121670Y145950D01*
X121678Y145927D01*
X121683Y145906D01*
X121691Y145893D01*
Y145883D01*
X121694Y145880D01*
X121483Y145669D01*
X121459Y145723D01*
X121439Y145780D01*
X121418Y145836D01*
X121400Y145890D01*
X121385Y145937D01*
X121372Y145975D01*
X121367Y146001D01*
Y146006D01*
X121364Y146009D01*
X121346Y146084D01*
X121333Y146153D01*
X121323Y146215D01*
X121318Y146266D01*
X121310Y146310D01*
Y146341D01*
X121307Y146364D01*
Y146369D01*
X119915Y144977D01*
X119696Y145196D01*
X121485Y146984D01*
X121627Y146843D01*
D02*
G37*
G36*
X122834Y145620D02*
X121606Y144393D01*
X121552Y144339D01*
X121511Y144287D01*
X121475Y144246D01*
X121449Y144210D01*
X121431Y144182D01*
X121416Y144161D01*
X121410Y144146D01*
X121408Y144143D01*
X121392Y144107D01*
X121385Y144073D01*
X121382Y144040D01*
X121377Y144009D01*
X121382Y143983D01*
Y143963D01*
X121385Y143950D01*
Y143945D01*
X121397Y143906D01*
X121413Y143870D01*
X121434Y143839D01*
X121452Y143811D01*
X121472Y143785D01*
X121485Y143767D01*
X121501Y143752D01*
X121544Y143713D01*
X121593Y143685D01*
X121634Y143664D01*
X121678Y143651D01*
X121712Y143643D01*
X121740Y143641D01*
X121758Y143638D01*
X121763D01*
X121791Y143641D01*
X121820Y143649D01*
X121876Y143674D01*
X121938Y143705D01*
X121992Y143744D01*
X122044Y143780D01*
X122062Y143798D01*
X122080Y143811D01*
X122098Y143824D01*
X122108Y143834D01*
X122113Y143839D01*
X122116Y143842D01*
X122298Y143597D01*
X122249Y143548D01*
X122203Y143507D01*
X122152Y143471D01*
X122108Y143438D01*
X122062Y143412D01*
X122020Y143391D01*
X121979Y143371D01*
X121943Y143355D01*
X121907Y143345D01*
X121876Y143335D01*
X121848Y143327D01*
X121825Y143324D01*
X121807Y143322D01*
X121791Y143317D01*
X121786D01*
X121781D01*
X121732Y143319D01*
X121686Y143324D01*
X121640Y143335D01*
X121593Y143350D01*
X121511Y143386D01*
X121439Y143427D01*
X121374Y143471D01*
X121351Y143489D01*
X121328Y143507D01*
X121310Y143520D01*
X121287Y143543D01*
X121233Y143602D01*
X121189Y143662D01*
X121153Y143718D01*
X121125Y143772D01*
X121101Y143816D01*
X121089Y143850D01*
X121081Y143873D01*
X121078Y143880D01*
X121063Y143947D01*
X121058Y144014D01*
X121060Y144073D01*
X121063Y144127D01*
X121073Y144174D01*
X121081Y144207D01*
X121089Y144230D01*
Y144236D01*
X121091Y144238D01*
X121125Y144308D01*
X121163Y144377D01*
X121212Y144447D01*
X121264Y144508D01*
X121307Y144562D01*
X121328Y144583D01*
X121346Y144606D01*
X121361Y144622D01*
X121372Y144632D01*
X121379Y144640D01*
X121382Y144642D01*
X122597Y145857D01*
X122834Y145620D01*
D02*
G37*
%LPC*%
G36*
X133179Y199745D02*
X133161D01*
X133110Y199742D01*
X133063Y199734D01*
X133019Y199720D01*
X132982Y199705D01*
X132950Y199694D01*
X132924Y199680D01*
X132910Y199672D01*
X132902Y199669D01*
X132859Y199636D01*
X132822Y199603D01*
X132790Y199563D01*
X132764Y199530D01*
X132742Y199498D01*
X132728Y199472D01*
X132717Y199454D01*
X132713Y199447D01*
X132691Y199392D01*
X132677Y199338D01*
X132662Y199287D01*
X132655Y199239D01*
X132651Y199199D01*
X132648Y199167D01*
Y199148D01*
Y199141D01*
X132655Y199054D01*
X132669Y198977D01*
X132695Y198908D01*
X132720Y198853D01*
X132746Y198806D01*
X132771Y198773D01*
X132786Y198755D01*
X132793Y198748D01*
X132851Y198697D01*
X132910Y198661D01*
X132972Y198631D01*
X133026Y198613D01*
X133077Y198602D01*
X133113Y198599D01*
X133128Y198595D01*
X133150D01*
X133226Y198602D01*
X133296Y198620D01*
X133354Y198642D01*
X133405Y198671D01*
X133445Y198700D01*
X133474Y198722D01*
X133492Y198741D01*
X133499Y198748D01*
X133547Y198810D01*
X133583Y198875D01*
X133608Y198944D01*
X133623Y199010D01*
X133634Y199068D01*
X133638Y199094D01*
Y199116D01*
X133641Y199134D01*
Y199148D01*
Y199155D01*
Y199159D01*
X133634Y199258D01*
X133619Y199341D01*
X133598Y199414D01*
X133572Y199476D01*
X133543Y199523D01*
X133521Y199560D01*
X133507Y199581D01*
X133499Y199585D01*
Y199589D01*
X133474Y199618D01*
X133445Y199640D01*
X133386Y199680D01*
X133328Y199705D01*
X133277Y199727D01*
X133230Y199738D01*
X133194Y199742D01*
X133179Y199745D01*
D02*
G37*
G36*
X113717Y275635D02*
X112923D01*
X113717Y274507D01*
Y275635D01*
D02*
G37*
%LPD*%
D12*
X235780Y237724D02*
X268220D01*
Y263276D01*
X235780Y263276D02*
X268220Y263276D01*
X235780Y237724D02*
X235780Y263276D01*
X115539Y188287D02*
Y211713D01*
X145461Y211713D01*
Y188287D02*
Y211713D01*
X115539Y188287D02*
X145461D01*
X81618Y188354D02*
Y211779D01*
X111539D01*
Y188354D02*
Y211779D01*
X81618Y188354D02*
X111539D01*
X95961Y264854D02*
Y288280D01*
X125882D01*
X125882Y264854D02*
X125882Y288280D01*
X95961Y264854D02*
X125882Y264854D01*
X88039Y265220D02*
Y288646D01*
X58118Y265220D02*
X88039D01*
X58118D02*
Y288646D01*
X88039D01*
X143139Y21703D02*
X159703Y5139D01*
X143139Y21703D02*
X164297Y42861D01*
X180861Y26297D01*
X159703Y5139D02*
X180861Y26297D01*
X140835Y112859D02*
X151971Y123995D01*
X91561Y162134D02*
X140835Y112859D01*
X91561Y162134D02*
X102696Y173269D01*
X151971Y123995D01*
D16*
X156242Y6767D02*
X156984Y6025D01*
X156613Y6396D01*
X154758Y4541D01*
Y3799D01*
X155129Y3428D01*
X155871D01*
X155129Y7139D02*
X155129Y7881D01*
X154387Y8623D01*
X153645D01*
X153274Y8252D01*
Y7510D01*
X153645Y7139D01*
X153274Y7510D01*
X152532Y7510D01*
X152160Y7139D01*
X152160Y6396D01*
X152902Y5654D01*
X153645D01*
M02*
