G04*
G04 #@! TF.GenerationSoftware,Altium Limited,Altium Designer,22.5.1 (42)*
G04*
G04 Layer_Color=32768*
%FSLAX25Y25*%
%MOIN*%
G70*
G04*
G04 #@! TF.SameCoordinates,1E371425-67B3-4B82-B5F9-9DAA90CAEBC7*
G04*
G04*
G04 #@! TF.FilePolarity,Positive*
G04*
G01*
G75*
%ADD11C,0.00500*%
%ADD12C,0.00787*%
D11*
X243535Y228850D02*
X250465D01*
X243535Y225150D02*
X250465D01*
Y228850D01*
X243535Y225150D02*
Y228850D01*
X191886Y235500D02*
X197791Y235500D01*
X159209Y235500D02*
X165114Y235500D01*
X165114Y230382D02*
X191886Y230382D01*
X191886Y235500D02*
X191886Y230382D01*
X191886Y240618D02*
X191886Y235500D01*
X165114Y240618D02*
X191886Y240618D01*
X165114Y240618D02*
X165114Y235500D01*
X165114Y230382D01*
D12*
X239618Y238118D02*
X264382D01*
Y262882D01*
X239618D02*
X264382D01*
X239618Y238118D02*
Y262882D01*
X115933Y188681D02*
Y211319D01*
X145067D01*
Y188681D02*
Y211319D01*
X115933Y188681D02*
X145067D01*
X82012Y188748D02*
Y211386D01*
X111146D01*
Y188748D02*
Y211386D01*
X82012Y188748D02*
X111146D01*
X96354Y265248D02*
Y287886D01*
X125488D01*
Y265248D02*
Y287886D01*
X96354Y265248D02*
X125488D01*
X87646Y265614D02*
Y288252D01*
X58512Y265614D02*
X87646D01*
X58512D02*
Y288252D01*
X87646D01*
X143696Y21703D02*
X159703Y5696D01*
X143696Y21703D02*
X164297Y42304D01*
X180304Y26297D01*
X159703Y5696D02*
X180304Y26297D01*
X140835Y113415D02*
X151414Y123995D01*
X92117Y162134D02*
X140835Y113415D01*
X92117Y162134D02*
X102696Y172713D01*
X151414Y123995D01*
M02*
