G04*
G04 #@! TF.GenerationSoftware,Altium Limited,Altium Designer,22.5.1 (42)*
G04*
G04 Layer_Color=16711935*
%FSLAX25Y25*%
%MOIN*%
G70*
G04*
G04 #@! TF.SameCoordinates,1E371425-67B3-4B82-B5F9-9DAA90CAEBC7*
G04*
G04*
G04 #@! TF.FilePolarity,Positive*
G04*
G01*
G75*
%ADD49C,0.03937*%
D49*
X2468Y73128D02*
X2969Y72258D01*
X3472Y71390D01*
X3980Y70524D01*
X4492Y69661D01*
X5007Y68800D01*
X5527Y67941D01*
X6050Y67084D01*
X6577Y66230D01*
X7107Y65378D01*
X7642Y64529D01*
X8180Y63682D01*
X8722Y62837D01*
X9267Y61995D01*
X9817Y61155D01*
X10370Y60317D01*
X10926Y59482D01*
X11487Y58650D01*
X12051Y57820D01*
X12619Y56992D01*
X13191Y56167D01*
X13766Y55345D01*
X14345Y54525D01*
X14927Y53708D01*
X15513Y52893D01*
X16103Y52081D01*
X16696Y51272D01*
X17293Y50465D01*
X17893Y49661D01*
X18497Y48859D01*
X19105Y48060D01*
X19716Y47264D01*
X20330Y46471D01*
X20948Y45680D01*
X21570Y44892D01*
X22195Y44107D01*
X22824Y43325D01*
X23456Y42545D01*
X24091Y41768D01*
X24730Y40994D01*
X25372Y40223D01*
X26018Y39455D01*
X26667Y38689D01*
X27319Y37927D01*
X27975Y37167D01*
X28635Y36411D01*
X29297Y35657D01*
X29963Y34906D01*
X30632Y34158D01*
X31305Y33413D01*
X31981Y32671D01*
X32660Y31933D01*
X33342Y31197D01*
X34028Y30464D01*
X34717Y29734D01*
X35409Y29007D01*
X36104Y28284D01*
X36803Y27563D01*
X37505Y26845D01*
X38210Y26131D01*
X38918Y25420D01*
X39629Y24712D01*
X40343Y24007D01*
X41061Y23305D01*
X41781Y22607D01*
X42505Y21911D01*
X43232Y21219D01*
X43962Y20530D01*
X44694Y19845D01*
X45430Y19162D01*
X46169Y18483D01*
X46911Y17807D01*
X47656Y17134D01*
X48404Y16465D01*
X49154Y15799D01*
X49908Y15137D01*
X50665Y14478D01*
X51424Y13822D01*
X52187Y13169D01*
X52952Y12520D01*
X53721Y11874D01*
X54492Y11232D01*
X55266Y10593D01*
X56042Y9957D01*
X56822Y9325D01*
X57604Y8697D01*
X58390Y8072D01*
X59178Y7450D01*
X59968Y6832D01*
X60762Y6218D01*
X61558Y5607D01*
X62357Y4999D01*
X63158Y4395D01*
X63962Y3795D01*
X64769Y3198D01*
X65579Y2605D01*
X66391Y2015D01*
X67205Y1429D01*
X68023Y846D01*
X68842Y268D01*
X69665Y-308D01*
X70490Y-879D01*
X71317Y-1447D01*
X72147Y-2011D01*
X72980Y-2572D01*
X73815Y-3128D01*
X74652Y-3682D01*
X75492Y-4231D01*
X76334Y-4777D01*
X77179Y-5319D01*
X78026Y-5857D01*
X78876Y-6391D01*
X79727Y-6922D01*
X80582Y-7449D01*
X81438Y-7972D01*
X82297Y-8491D01*
X83158Y-9006D01*
X84021Y-9518D01*
X84887Y-10026D01*
X85755Y-10530D01*
X86625Y-11030D01*
X33366Y309390D02*
X34092Y308689D01*
X34841Y308014D01*
X35612Y307364D01*
X36405Y306741D01*
X37220Y306145D01*
X38053Y305577D01*
X38906Y305039D01*
X39777Y304530D01*
X40665Y304050D01*
X41568Y303602D01*
X42487Y303184D01*
X43418Y302799D01*
X44363Y302445D01*
X45319Y302123D01*
X46286Y301835D01*
X47262Y301580D01*
X48246Y301358D01*
X49237Y301170D01*
X50234Y301016D01*
X51235Y300896D01*
X52240Y300810D01*
X53248Y300759D01*
X54256Y300742D01*
X55265Y300760D01*
X56272Y300812D01*
X57277Y300898D01*
X58279Y301019D01*
X59276Y301174D01*
X60267Y301362D01*
X61251Y301585D01*
X62226Y301841D01*
X63193Y302130D01*
X64149Y302452D01*
X65093Y302807D01*
X66025Y303193D01*
X66943Y303611D01*
X67846Y304061D01*
X68733Y304540D01*
X69604Y305050D01*
X70456Y305590D01*
X71289Y306158D01*
X72103Y306754D01*
X19407Y323350D02*
X18808Y322565D01*
X18212Y321778D01*
X17619Y320988D01*
X17030Y320196D01*
X16445Y319401D01*
X15862Y318604D01*
X15284Y317804D01*
X14709Y317002D01*
X14137Y316197D01*
X13569Y315389D01*
X13004Y314580D01*
X12443Y313767D01*
X11886Y312952D01*
X11332Y312135D01*
X10781Y311316D01*
X10234Y310494D01*
X9691Y309669D01*
X9152Y308842D01*
X8616Y308014D01*
X8083Y307182D01*
X7554Y306348D01*
X7029Y305512D01*
X6508Y304674D01*
X5990Y303834D01*
X5476Y302991D01*
X4965Y302146D01*
X4459Y301298D01*
X3956Y300449D01*
X3456Y299597D01*
X2961Y298744D01*
X2469Y297887D01*
X388598Y90444D02*
X387849Y91109D01*
X387090Y91763D01*
X386322Y92406D01*
X385544Y93037D01*
X384756Y93657D01*
X383960Y94264D01*
X383154Y94860D01*
X382340Y95443D01*
X381517Y96014D01*
X380685Y96573D01*
X379845Y97120D01*
X378997Y97653D01*
X378142Y98174D01*
X377278Y98682D01*
X376407Y99177D01*
X375529Y99659D01*
X374644Y100128D01*
X373751Y100584D01*
X372852Y101026D01*
X371947Y101454D01*
X371035Y101869D01*
X370117Y102270D01*
X369193Y102658D01*
X368264Y103032D01*
X367329Y103391D01*
X366388Y103737D01*
X365443Y104068D01*
X364493Y104386D01*
X363538Y104689D01*
X362578Y104977D01*
X361615Y105252D01*
X360647Y105512D01*
X359676Y105757D01*
X358701Y105988D01*
X357723Y106204D01*
X356741Y106405D01*
X355757Y106592D01*
X354770Y106764D01*
X353781Y106922D01*
X352789Y107064D01*
X351796Y107192D01*
X350800Y107304D01*
X349803Y107402D01*
X348805Y107485D01*
X347805Y107553D01*
X346805Y107606D01*
X345803Y107644D01*
X344802Y107667D01*
X343800Y107675D01*
X342798Y107668D01*
X341797Y107645D01*
X340796Y107608D01*
X339795Y107556D01*
X338796Y107490D01*
X337797Y107408D01*
X336800Y107311D01*
X335804Y107199D01*
X334811Y107072D01*
X333819Y106931D01*
X332829Y106774D01*
X331842Y106603D01*
X330858Y106417D01*
X329876Y106217D01*
X328898Y106001D01*
X327923Y105772D01*
X326951Y105527D01*
X325983Y105268D01*
X325020Y104995D01*
X324060Y104707D01*
X323105Y104404D01*
X322154Y104088D01*
X321209Y103758D01*
X320268Y103413D01*
X319333Y103054D01*
X318403Y102681D01*
X317478Y102295D01*
X316560Y101894D01*
X315648Y101480D01*
X314742Y101052D01*
X313843Y100611D01*
X312950Y100156D01*
X312064Y99688D01*
X311185Y99207D01*
X310314Y98713D01*
X309450Y98206D01*
X308594Y97685D01*
X307745Y97153D01*
X306905Y96607D01*
X306073Y96049D01*
X305249Y95479D01*
X304434Y94896D01*
X303628Y94301D01*
X302831Y93694D01*
X302043Y93076D01*
X301265Y92445D01*
X300496Y91803D01*
X299736Y91150D01*
X298987Y90485D01*
X298247Y89809D01*
X297518Y89122D01*
X296799Y88424D01*
X296091Y87716D01*
X295393Y86997D01*
X294706Y86268D01*
X294030Y85528D01*
X293365Y84779D01*
X292712Y84020D01*
X292070Y83250D01*
X291440Y82472D01*
X290821Y81684D01*
X290214Y80887D01*
X289619Y80081D01*
X289036Y79266D01*
X288466Y78442D01*
X287908Y77610D01*
X287363Y76770D01*
X286830Y75921D01*
X286310Y75065D01*
X285802Y74201D01*
X285308Y73330D01*
X284827Y72451D01*
X284359Y71565D01*
X283904Y70673D01*
X283463Y69773D01*
X283035Y68867D01*
X282621Y67955D01*
X282221Y67037D01*
X281834Y66113D01*
X281461Y65183D01*
X281102Y64247D01*
X280758Y63307D01*
X280427Y62361D01*
X280111Y61410D01*
X279808Y60455D01*
X279521Y59496D01*
X279247Y58532D01*
X278988Y57564D01*
X278744Y56593D01*
X278514Y55618D01*
X278298Y54639D01*
X278098Y53658D01*
X277912Y52673D01*
X277741Y51686D01*
X277584Y50697D01*
X277443Y49705D01*
X277316Y48711D01*
X277204Y47715D01*
X277107Y46718D01*
X277026Y45720D01*
X276958Y44720D01*
X276906Y43720D01*
X276870Y42719D01*
X276847Y41717D01*
X276840Y40715D01*
X276848Y39713D01*
X276871Y38712D01*
X276909Y37711D01*
X276962Y36710D01*
X277030Y35711D01*
X277113Y34712D01*
X277211Y33716D01*
X277323Y32720D01*
X277451Y31726D01*
X277593Y30735D01*
X277751Y29745D01*
X277923Y28758D01*
X278109Y27774D01*
X278311Y26793D01*
X278527Y25815D01*
X278758Y24840D01*
X279003Y23868D01*
X279263Y22901D01*
X279537Y21937D01*
X279826Y20978D01*
X280129Y20023D01*
X280447Y19073D01*
X280778Y18127D01*
X281124Y17187D01*
X281483Y16252D01*
X281857Y15323D01*
X282244Y14399D01*
X282646Y13481D01*
X283061Y12569D01*
X283489Y11663D01*
X283931Y10764D01*
X284387Y9872D01*
X284855Y8987D01*
X285337Y8108D01*
X285832Y7237D01*
X286340Y6374D01*
X286861Y5518D01*
X287395Y4670D01*
X287941Y3830D01*
X288500Y2999D01*
X289071Y2176D01*
X289655Y1362D01*
X290250Y556D01*
X290858Y-241D01*
X291477Y-1028D01*
X292108Y-1806D01*
X292751Y-2575D01*
X293405Y-3333D01*
X294071Y-4082D01*
X395547Y297887D02*
X395046Y298757D01*
X394542Y299625D01*
X394035Y300491D01*
X393523Y301354D01*
X393008Y302216D01*
X392488Y303074D01*
X391965Y303931D01*
X391438Y304785D01*
X390908Y305637D01*
X390373Y306487D01*
X389835Y307334D01*
X389293Y308178D01*
X388748Y309021D01*
X388198Y309860D01*
X387645Y310698D01*
X387088Y311533D01*
X386528Y312366D01*
X385964Y313195D01*
X385396Y314023D01*
X384824Y314848D01*
X384249Y315670D01*
X383670Y316490D01*
X383088Y317308D01*
X382502Y318122D01*
X381912Y318934D01*
X381319Y319744D01*
X380722Y320551D01*
X380121Y321355D01*
X379517Y322157D01*
X378910Y322955D01*
X378299Y323752D01*
X377684Y324545D01*
X377066Y325336D01*
X376445Y326124D01*
X375819Y326909D01*
X375191Y327691D01*
X374559Y328471D01*
X373923Y329248D01*
X373284Y330022D01*
X372642Y330793D01*
X371996Y331561D01*
X371347Y332327D01*
X370695Y333089D01*
X370039Y333849D01*
X369379Y334605D01*
X368717Y335359D01*
X368051Y336110D01*
X367382Y336858D01*
X366709Y337603D01*
X366033Y338345D01*
X365354Y339084D01*
X364672Y339820D01*
X363986Y340552D01*
X363297Y341282D01*
X362605Y342009D01*
X361909Y342733D01*
X361211Y343453D01*
X360509Y344171D01*
X359804Y344885D01*
X359096Y345596D01*
X358385Y346304D01*
X357670Y347009D01*
X356953Y347711D01*
X356232Y348410D01*
X355509Y349105D01*
X354782Y349797D01*
X354052Y350486D01*
X353319Y351172D01*
X352583Y351854D01*
X351844Y352533D01*
X351102Y353209D01*
X350358Y353882D01*
X349610Y354551D01*
X348859Y355217D01*
X348105Y355880D01*
X347348Y356539D01*
X346589Y357195D01*
X345826Y357847D01*
X345061Y358497D01*
X344292Y359142D01*
X343521Y359785D01*
X342747Y360423D01*
X341971Y361059D01*
X341191Y361691D01*
X340409Y362320D01*
X339623Y362945D01*
X338835Y363566D01*
X338045Y364184D01*
X337251Y364799D01*
X336455Y365410D01*
X335656Y366018D01*
X334855Y366622D01*
X334051Y367222D01*
X333244Y367819D01*
X332434Y368412D01*
X331622Y369002D01*
X330807Y369588D01*
X329990Y370170D01*
X329170Y370749D01*
X328348Y371324D01*
X327523Y371896D01*
X326695Y372464D01*
X325865Y373028D01*
X325033Y373588D01*
X324198Y374145D01*
X323360Y374698D01*
X322520Y375248D01*
X321678Y375793D01*
X320833Y376335D01*
X319986Y376873D01*
X319137Y377408D01*
X318285Y377939D01*
X317431Y378465D01*
X316574Y378989D01*
X315715Y379508D01*
X314854Y380023D01*
X313991Y380535D01*
X313125Y381043D01*
X312257Y381547D01*
X311387Y382047D01*
X86628D02*
X85772Y381555D01*
X84918Y381059D01*
X84066Y380560D01*
X83217Y380057D01*
X82370Y379550D01*
X81524Y379039D01*
X80682Y378525D01*
X79841Y378007D01*
X79003Y377486D01*
X78167Y376961D01*
X77333Y376432D01*
X76502Y375900D01*
X75673Y375363D01*
X74846Y374824D01*
X74022Y374281D01*
X73200Y373734D01*
X72380Y373183D01*
X71563Y372629D01*
X70748Y372072D01*
X69936Y371511D01*
X69126Y370946D01*
X68318Y370378D01*
X67514Y369807D01*
X66711Y369231D01*
X65911Y368653D01*
X65114Y368071D01*
X64319Y367485D01*
X63527Y366896D01*
X62737Y366303D01*
X61950Y365707D01*
X61166Y365108D01*
X9417Y80076D02*
Y290939D01*
X86628Y-11032D02*
X93576Y-4083D01*
X2468Y73128D02*
X9417Y80076D01*
X86628Y382047D02*
X93576Y375098D01*
X304439D02*
X311387Y382047D01*
X93576Y375098D02*
X304439D01*
X19407Y323350D02*
X33366Y309390D01*
X93576Y-4083D02*
X294071D01*
X388598Y290939D02*
X395547Y297887D01*
X388598Y90444D02*
Y290939D01*
X72103Y306754D02*
X171500Y297131D01*
X61165Y365108D02*
X73801Y352472D01*
X171500Y297131D02*
Y343014D01*
X73801Y352472D02*
X171500Y343014D01*
X2468Y297887D02*
X9417Y290939D01*
M02*
