G04*
G04 #@! TF.GenerationSoftware,Altium Limited,Altium Designer,22.5.1 (42)*
G04*
G04 Layer_Color=16711935*
%FSLAX25Y25*%
%MOIN*%
G70*
G04*
G04 #@! TF.SameCoordinates,1E371425-67B3-4B82-B5F9-9DAA90CAEBC7*
G04*
G04*
G04 #@! TF.FilePolarity,Positive*
G04*
G01*
G75*
%ADD12C,0.00787*%
G36*
X184039Y46189D02*
X184044D01*
X184060Y46184D01*
X184078Y46181D01*
X184101Y46179D01*
X184129Y46171D01*
X184160Y46161D01*
X184196Y46151D01*
X184232Y46135D01*
X184273Y46115D01*
X184314Y46094D01*
X184361Y46068D01*
X184404Y46035D01*
X184456Y45999D01*
X184502Y45958D01*
X184551Y45909D01*
X184368Y45664D01*
X184366Y45667D01*
X184361Y45672D01*
X184350Y45682D01*
X184332Y45695D01*
X184314Y45708D01*
X184296Y45726D01*
X184245Y45762D01*
X184191Y45801D01*
X184129Y45832D01*
X184072Y45857D01*
X184044Y45865D01*
X184016Y45867D01*
X184011D01*
X183993Y45865D01*
X183964Y45862D01*
X183931Y45855D01*
X183887Y45842D01*
X183846Y45821D01*
X183797Y45793D01*
X183753Y45754D01*
X183738Y45739D01*
X183725Y45721D01*
X183704Y45695D01*
X183686Y45667D01*
X183666Y45636D01*
X183650Y45600D01*
X183637Y45561D01*
Y45556D01*
X183635Y45543D01*
Y45523D01*
X183630Y45497D01*
X183635Y45466D01*
X183637Y45432D01*
X183645Y45399D01*
X183661Y45363D01*
X183663Y45360D01*
X183668Y45345D01*
X183684Y45324D01*
X183702Y45296D01*
X183728Y45260D01*
X183764Y45219D01*
X183805Y45167D01*
X183859Y45113D01*
X185087Y43886D01*
X184850Y43649D01*
X183635Y44864D01*
X183632Y44866D01*
X183624Y44874D01*
X183614Y44884D01*
X183599Y44900D01*
X183581Y44923D01*
X183560Y44943D01*
X183516Y44998D01*
X183465Y45059D01*
X183416Y45129D01*
X183377Y45198D01*
X183344Y45268D01*
X183341Y45270D01*
Y45276D01*
X183334Y45299D01*
X183326Y45332D01*
X183316Y45378D01*
X183313Y45432D01*
X183310Y45492D01*
X183316Y45559D01*
X183331Y45625D01*
X183334Y45633D01*
X183341Y45656D01*
X183354Y45690D01*
X183377Y45734D01*
X183406Y45788D01*
X183442Y45844D01*
X183485Y45904D01*
X183540Y45963D01*
X183563Y45986D01*
X183581Y45999D01*
X183604Y46017D01*
X183627Y46035D01*
X183691Y46079D01*
X183764Y46120D01*
X183846Y46156D01*
X183892Y46171D01*
X183939Y46181D01*
X183985Y46187D01*
X184034Y46189D01*
X184039D01*
D02*
G37*
G36*
X182806Y45162D02*
X182816Y45152D01*
X182832Y45136D01*
X182850Y45113D01*
X182870Y45088D01*
X182891Y45057D01*
X182912Y45026D01*
X182930Y44987D01*
X182932Y44985D01*
Y44980D01*
X182942Y44959D01*
X182955Y44925D01*
X182971Y44879D01*
X182986Y44822D01*
X183002Y44756D01*
X183015Y44686D01*
X183022Y44606D01*
X183025Y44604D01*
X183022Y44596D01*
X183025Y44568D01*
Y44521D01*
Y44454D01*
Y44377D01*
X183022Y44282D01*
X183015Y44171D01*
X183004Y44053D01*
Y44048D01*
X183002Y44030D01*
X182999Y44001D01*
X182996Y43968D01*
X182994Y43924D01*
X182989Y43873D01*
X182986Y43819D01*
X182981Y43757D01*
X182978Y43631D01*
X182976Y43505D01*
Y43443D01*
X182978Y43384D01*
X182981Y43330D01*
X182989Y43281D01*
X182991Y43278D01*
X182989Y43270D01*
X182991Y43258D01*
X182996Y43242D01*
X183007Y43196D01*
X183020Y43142D01*
X183043Y43083D01*
X183069Y43021D01*
X183107Y42962D01*
X183148Y42910D01*
X183151Y42908D01*
X183153Y42905D01*
X183171Y42892D01*
X183200Y42869D01*
X183236Y42848D01*
X183282Y42823D01*
X183336Y42805D01*
X183396Y42792D01*
X183462Y42787D01*
X183473D01*
X183496Y42789D01*
X183527Y42794D01*
X183573Y42805D01*
X183624Y42825D01*
X183681Y42851D01*
X183740Y42889D01*
X183797Y42941D01*
X183812Y42956D01*
X183820Y42969D01*
X183849Y43003D01*
X183877Y43047D01*
X183905Y43095D01*
X183931Y43157D01*
X183949Y43222D01*
X183957Y43291D01*
Y43301D01*
X183954Y43325D01*
X183949Y43360D01*
X183933Y43407D01*
X183915Y43461D01*
X183885Y43523D01*
X183843Y43584D01*
X183789Y43649D01*
X184036Y43850D01*
X184039Y43847D01*
X184044Y43837D01*
X184057Y43824D01*
X184072Y43803D01*
X184088Y43777D01*
X184106Y43749D01*
X184126Y43713D01*
X184147Y43677D01*
X184188Y43595D01*
X184219Y43502D01*
X184232Y43453D01*
X184240Y43399D01*
X184245Y43348D01*
Y43296D01*
Y43291D01*
X184242Y43283D01*
Y43268D01*
X184237Y43247D01*
X184232Y43222D01*
X184224Y43193D01*
X184216Y43160D01*
X184204Y43121D01*
X184188Y43080D01*
X184170Y43036D01*
X184147Y42992D01*
X184121Y42946D01*
X184090Y42900D01*
X184057Y42851D01*
X184016Y42805D01*
X183972Y42756D01*
X183946Y42730D01*
X183926Y42715D01*
X183903Y42696D01*
X183874Y42673D01*
X183841Y42650D01*
X183807Y42627D01*
X183722Y42578D01*
X183630Y42537D01*
X183581Y42519D01*
X183529Y42503D01*
X183475Y42496D01*
X183421Y42493D01*
X183416D01*
X183408Y42491D01*
X183393Y42496D01*
X183372D01*
X183347D01*
X183316Y42501D01*
X183285Y42506D01*
X183246Y42514D01*
X183171Y42537D01*
X183084Y42573D01*
X183043Y42594D01*
X183002Y42624D01*
X182960Y42655D01*
X182919Y42691D01*
X182914Y42696D01*
X182901Y42709D01*
X182883Y42733D01*
X182858Y42763D01*
X182832Y42799D01*
X182806Y42846D01*
X182778Y42895D01*
X182755Y42949D01*
X182752Y42956D01*
X182744Y42974D01*
X182734Y43005D01*
X182721Y43049D01*
X182711Y43101D01*
X182698Y43165D01*
X182690Y43234D01*
X182683Y43314D01*
Y43325D01*
X182680Y43353D01*
Y43379D01*
Y43404D01*
Y43435D01*
Y43476D01*
Y43518D01*
X182683Y43566D01*
Y43618D01*
X182685Y43677D01*
X182690Y43739D01*
X182693Y43808D01*
X182701Y43883D01*
X182706Y43960D01*
Y43965D01*
Y43976D01*
X182708Y43994D01*
X182711Y44017D01*
Y44048D01*
X182713Y44081D01*
X182721Y44156D01*
X182726Y44238D01*
X182729Y44318D01*
X182731Y44388D01*
X182734Y44416D01*
Y44442D01*
Y44447D01*
Y44462D01*
Y44483D01*
X182731Y44511D01*
X182726Y44542D01*
X182724Y44575D01*
X182711Y44650D01*
X181833Y43772D01*
X181622Y43983D01*
X182803Y45165D01*
X182806Y45162D01*
D02*
G37*
D12*
X181722Y27581D02*
X202879Y48738D01*
X165157Y44145D02*
X181722Y27581D01*
X165157Y44145D02*
X186315Y65302D01*
X202879Y48738D01*
M02*
